<?xml version="1.0" standalone="no"?>
<!DOCTYPE svg PUBLIC "-//W3C//DTD SVG 20010904//EN"
 "http://www.w3.org/TR/2001/REC-SVG-20010904/DTD/svg10.dtd">
<svg version="1.0" xmlns="http://www.w3.org/2000/svg"
 width="675.000000pt" height="675.000000pt" viewBox="0 0 675.000000 675.000000"
 preserveAspectRatio="xMidYMid meet">
<metadata>
Created by potrace 1.10, written by Peter Selinger 2001-2011
</metadata>
<g transform="translate(0.000000,675.000000) scale(0.100000,-0.100000)"
fill="#FFf" stroke="none">
<path d="M1350 6736 c0 -14 -21 -26 -46 -26 -8 0 -22 -8 -33 -19 -10 -10 -23
-20 -27 -22 -19 -8 -84 -97 -84 -115 0 -10 -7 -28 -15 -38 -8 -11 -15 -28 -15
-39 0 -10 -6 -31 -14 -45 -16 -32 -34 -98 -46 -169 -4 -29 -14 -69 -21 -90
-20 -59 -17 -501 3 -573 28 -96 30 -148 8 -170 -22 -22 -81 -111 -110 -165 -6
-11 -19 -33 -30 -50 -11 -16 -22 -37 -26 -45 -3 -8 -10 -22 -15 -30 -5 -8 -12
-22 -15 -30 -3 -8 -12 -28 -20 -43 -7 -16 -14 -35 -14 -42 0 -7 -6 -26 -14
-42 -27 -56 -64 -177 -76 -254 -5 -31 -14 -68 -20 -83 -5 -15 -13 -111 -16
-214 -8 -257 16 -607 48 -710 5 -19 14 -57 18 -85 4 -29 13 -65 18 -82 6 -16
18 -57 28 -90 9 -33 23 -72 30 -87 8 -14 14 -33 14 -41 0 -9 6 -28 14 -44 8
-15 22 -46 32 -68 9 -22 21 -47 26 -55 4 -8 10 -21 13 -27 15 -37 18 -43 68
-120 15 -24 27 -47 27 -53 0 -5 4 -10 9 -10 5 0 20 -19 34 -42 61 -102 281
-322 390 -390 26 -16 47 -34 47 -39 0 -5 5 -9 11 -9 6 0 31 -13 56 -30 24 -16
51 -30 59 -30 8 0 17 -7 20 -15 4 -8 14 -15 24 -15 10 0 23 -7 30 -15 7 -8 20
-15 30 -15 10 0 23 -7 30 -15 7 -8 23 -15 35 -15 12 0 28 -7 35 -15 7 -8 22
-15 34 -15 12 0 31 -7 42 -15 10 -8 28 -15 40 -15 11 0 29 -7 40 -15 10 -8 29
-15 41 -15 12 0 37 -6 55 -14 56 -23 135 -46 157 -46 50 0 72 -28 52 -68 -32
-63 -64 -233 -70 -376 l-6 -119 -50 -14 c-27 -8 -114 -17 -192 -20 -116 -4
-152 -2 -192 11 -27 9 -59 16 -71 16 -19 0 -40 8 -100 41 -8 4 -35 18 -60 31
-64 32 -230 199 -335 338 -27 36 -54 70 -60 75 -6 6 -28 31 -48 57 -94 118
-264 266 -337 294 -8 3 -22 10 -30 15 -8 5 -19 11 -25 13 -5 1 -26 9 -45 16
-19 8 -76 16 -126 18 -78 3 -97 0 -130 -17 -48 -26 -114 -81 -114 -96 0 -6 -6
-17 -13 -23 -34 -35 -34 -229 0 -264 7 -6 13 -17 13 -23 0 -26 130 -115 169
-115 10 0 24 -7 31 -15 7 -8 17 -15 22 -15 20 0 87 -61 144 -132 33 -40 64
-77 70 -83 6 -5 31 -37 56 -70 75 -99 107 -135 223 -250 97 -96 249 -215 274
-215 5 0 14 -7 21 -15 7 -8 20 -15 29 -15 9 0 22 -5 29 -12 12 -12 59 -31 122
-50 19 -5 39 -14 44 -19 6 -5 22 -9 37 -9 15 0 40 -5 56 -11 51 -21 298 -36
436 -26 71 5 135 6 143 3 12 -4 14 -48 14 -263 0 -221 2 -265 17 -307 19 -52
67 -113 117 -149 64 -46 213 -49 285 -6 29 17 91 77 91 87 0 5 5 13 12 20 34
34 37 101 38 722 1 338 5 644 9 680 11 87 75 247 108 269 12 8 109 135 125
164 8 13 13 60 13 119 0 77 -4 100 -18 115 -9 11 -17 24 -17 29 0 20 -81 89
-125 107 -28 12 -165 37 -201 37 -22 0 -63 7 -90 15 -27 8 -62 15 -79 15 -16
0 -50 6 -75 14 -43 14 -92 27 -170 46 -19 4 -51 14 -70 21 -60 21 -167 88
-190 80 -8 5 -22 12 -30 15 -8 3 -22 10 -30 15 -8 5 -25 13 -37 19 -30 12
-141 88 -177 120 -95 84 -215 213 -225 243 -2 6 -17 29 -33 51 -15 21 -28 45
-28 51 0 7 -7 18 -15 25 -8 7 -15 20 -15 29 0 9 -5 22 -12 29 -12 12 -36 71
-45 112 -3 14 -12 34 -19 45 -8 11 -14 29 -14 41 0 12 -7 38 -15 57 -8 20 -15
50 -15 67 0 17 -5 41 -11 52 -6 11 -15 57 -19 102 -5 44 -14 124 -20 176 -14
109 -9 383 8 450 6 25 16 65 22 90 6 25 14 56 16 70 3 14 12 40 20 58 8 17 21
49 30 70 9 20 20 44 25 52 5 8 11 21 14 28 13 32 16 39 35 67 11 17 24 40 29
51 5 12 13 23 18 25 5 2 31 33 57 69 27 36 60 76 73 90 45 49 63 99 63 177 0
40 -6 87 -14 105 -61 143 -92 398 -65 529 6 30 14 72 18 94 6 37 9 40 36 39
31 -1 80 -17 128 -40 16 -8 35 -14 44 -14 8 0 27 -6 41 -14 15 -8 74 -37 132
-88 58 -28 119 -60 135 -70 17 -11 39 -24 50 -30 11 -6 34 -19 50 -30 17 -10
40 -25 52 -32 13 -7 51 -31 85 -53 63 -40 63 -40 163 -40 71 0 112 5 143 18
23 9 55 17 70 17 15 0 45 7 67 15 22 8 59 14 82 15 23 0 54 5 70 11 15 6 75
15 133 19 58 5 155 14 215 21 170 17 475 3 695 -32 36 -6 95 -15 132 -19 37
-5 76 -13 87 -19 11 -6 33 -11 50 -11 16 0 42 -5 58 -11 61 -25 162 -36 223
-25 32 6 65 17 72 24 6 6 16 12 21 12 5 0 26 13 46 28 20 16 43 32 51 35 8 4
29 16 45 27 17 11 39 24 50 30 11 6 34 19 50 30 17 11 37 22 45 26 8 3 22 9
30 14 48 28 204 100 265 122 165 61 160 62 179 -3 22 -73 22 -374 1 -445 -8
-27 -15 -57 -15 -67 0 -11 -6 -33 -14 -50 -7 -18 -22 -60 -31 -94 -18 -61 -17
-65 0 -125 10 -35 24 -70 32 -79 7 -8 13 -20 13 -25 0 -5 8 -17 18 -26 45 -41
132 -151 132 -167 0 -6 4 -11 9 -11 11 0 18 -12 75 -127 60 -122 96 -219 96
-258 0 -11 7 -38 15 -60 11 -31 14 -98 14 -295 0 -140 -4 -277 -10 -305 -5
-27 -13 -82 -19 -122 -5 -40 -14 -81 -19 -92 -6 -11 -11 -32 -11 -48 0 -15 -7
-41 -15 -57 -8 -15 -15 -38 -15 -50 0 -12 -7 -31 -15 -42 -8 -10 -15 -27 -15
-37 0 -11 -6 -31 -14 -45 -8 -15 -24 -47 -36 -72 -12 -25 -30 -58 -41 -75 -10
-16 -22 -37 -26 -45 -32 -71 -256 -310 -290 -310 -7 0 -13 -5 -13 -10 0 -6
-10 -15 -22 -20 -13 -6 -36 -19 -53 -30 -16 -11 -39 -24 -50 -30 -19 -9 -27
-14 -72 -40 -10 -6 -25 -13 -33 -16 -8 -3 -28 -11 -45 -18 -62 -28 -169 -65
-215 -76 -60 -15 -123 -31 -176 -46 -28 -8 -65 -14 -82 -14 -17 0 -57 -7 -89
-15 -31 -8 -82 -15 -113 -15 -94 0 -200 -46 -247 -107 -46 -61 -63 -108 -63
-177 0 -79 22 -131 90 -211 49 -58 120 -167 120 -185 0 -5 6 -24 14 -42 44
-101 46 -145 46 -822 0 -623 1 -647 20 -683 24 -45 80 -113 93 -113 6 0 19 -8
30 -17 28 -26 226 -26 254 -1 11 10 24 18 30 18 13 0 69 68 93 113 18 34 19
65 21 759 2 648 0 728 -15 771 -9 26 -16 57 -16 68 0 11 -7 34 -16 50 -8 17
-14 45 -12 62 3 29 7 33 43 39 52 9 126 28 147 39 10 5 34 13 55 18 49 12 101
30 135 47 14 8 35 14 46 14 11 0 25 7 32 15 7 8 17 15 24 15 6 0 56 23 111 51
118 59 129 65 176 102 20 15 41 27 46 27 5 0 22 12 39 28 16 15 54 46 84 69
30 23 87 75 126 115 73 76 194 229 194 247 0 5 6 14 13 18 6 4 22 26 34 48 11
22 30 56 42 75 11 19 24 42 27 50 4 8 19 43 35 78 16 34 29 67 29 73 0 6 6 23
14 37 19 38 36 90 47 139 4 23 12 50 18 60 10 20 27 99 41 188 5 33 14 76 20
95 5 19 10 57 10 85 0 27 7 104 15 170 8 88 15 165 15 220 1 113 -24 334 -46
411 -8 28 -14 62 -14 75 -1 13 -7 35 -15 49 -8 14 -14 37 -15 51 0 14 -7 34
-15 45 -8 10 -15 27 -15 36 0 9 -6 29 -14 45 -7 15 -21 46 -31 68 -9 22 -21
47 -26 55 -5 8 -12 22 -15 30 -3 8 -10 22 -15 30 -5 8 -14 24 -19 35 -6 11
-19 34 -30 50 -11 17 -23 37 -27 45 -3 8 -26 41 -50 72 -45 59 -50 79 -32 125
6 15 15 60 19 98 5 39 14 115 21 170 10 86 10 122 -5 255 -10 85 -24 177 -32
204 -8 26 -14 58 -14 70 -1 11 -7 32 -15 46 -8 14 -14 37 -15 51 0 14 -7 34
-15 45 -8 10 -15 26 -15 34 0 8 -14 43 -31 78 -35 70 -85 117 -141 134 -21 6
-38 17 -38 25 0 10 -34 13 -165 13 -137 0 -165 -2 -165 -14 0 -10 -16 -17 -47
-21 -27 -3 -61 -10 -78 -16 -16 -6 -46 -15 -65 -19 -44 -10 -97 -29 -132 -46
-14 -8 -35 -14 -46 -14 -11 0 -25 -7 -32 -15 -7 -8 -18 -15 -25 -15 -16 0
-273 -129 -281 -141 -3 -5 -13 -9 -24 -9 -10 0 -20 -7 -24 -15 -3 -8 -11 -15
-18 -15 -7 0 -33 -14 -58 -30 -49 -32 -91 -38 -150 -19 -19 6 -57 15 -85 19
-27 4 -77 12 -110 18 -120 22 -223 33 -400 43 -220 12 -601 3 -709 -17 -43 -8
-97 -14 -120 -14 -22 0 -63 -7 -90 -15 -27 -8 -65 -15 -85 -15 -20 0 -54 -7
-76 -15 -47 -17 -121 -19 -130 -4 -4 5 -17 14 -28 20 -12 5 -49 25 -82 44 -33
19 -69 40 -80 45 -11 6 -27 14 -35 19 -8 5 -22 12 -30 15 -15 6 -25 11 -65 34
-11 7 -27 15 -35 18 -8 4 -43 19 -78 35 -34 16 -68 29 -75 29 -6 0 -21 7 -31
15 -11 8 -29 15 -41 15 -12 0 -30 7 -41 15 -10 8 -28 14 -39 15 -11 0 -40 7
-65 15 -25 8 -88 17 -92 20 -32 4 -48 11 -48 21 0 12 -28 14 -165 14 -134 0
-165 -3 -165 -14z"/>
</g>
</svg>
