<?xml version="1.0" standalone="no"?>
<!DOCTYPE svg PUBLIC "-//W3C//DTD SVG 20010904//EN"
 "http://www.w3.org/TR/2001/REC-SVG-20010904/DTD/svg10.dtd">
<svg version="1.0" xmlns="http://www.w3.org/2000/svg"
 width="225.000000pt" height="225.000000pt" viewBox="0 0 225.000000 225.000000"
 preserveAspectRatio="xMidYMid meet">
<metadata>
Created by potrace 1.10, written by Peter Selinger 2001-2011
</metadata>
<g transform="translate(0.000000,225.000000) scale(0.050000,-0.050000)"
fill="#ffffff" stroke="none">
<path d="M238 3622 l-58 -59 0 -1140 0 -1141 48 -56 c45 -53 60 -57 243 -66
l194 -10 -3 -213 c-5 -234 20 -328 100 -384 67 -47 3406 -51 3495 -4 103 53
103 47 103 1301 0 1421 23 1330 -339 1330 l-181 0 0 171 c0 180 -17 236 -87
294 -40 32 -163 34 -1750 35 l-1706 0 -59 -58z m3342 -322 l0 -120 -1392 0
-1391 0 -57 -57 c-79 -79 -83 -128 -76 -968 l6 -735 -115 0 -115 0 0 1000 0
1000 1570 0 1570 0 0 -120z m160 -448 c-537 -525 -1133 -1072 -1179 -1082
-100 -22 -169 32 -715 553 -296 283 -560 532 -587 555 l-49 41 1300 0 1299 1
-69 -68z m-2144 -659 c114 -109 204 -200 200 -203 -55 -48 -842 -670 -848
-670 -4 0 -8 339 -8 754 l0 754 225 -219 c124 -121 318 -308 431 -416z m2499
-521 l-5 -391 -430 348 c-236 191 -430 353 -430 359 0 7 194 197 430 421 l430
408 5 -377 c3 -208 3 -553 0 -768z m-1964 10 c264 -247 510 -243 772 13 l114
110 541 -435 c541 -434 542 -435 542 -513 l0 -77 -1581 0 -1581 0 6 98 6 98
510 410 c281 225 518 411 527 412 10 1 75 -51 144 -116z"/>
</g>
</svg>
